<?xml version="1.0" encoding="UTF-8"?><svg id="Capa_2" xmlns="http://www.w3.org/2000/svg" viewBox="0 0 200 38.5"><defs><style>.cls-1{fill:#ffffe7;}.cls-2{fill:#c84db8;}</style></defs><g id="Capa_1-2"><path class="cls-2" d="M64.89,0H4.2C1.88,0,0,1.88,0,4.2v22.15c0,6.68,5.47,12.28,12.15,12.14,4.91-.1,9.09-3.17,10.82-7.48.1-.24.43-.24.52,0,1.76,4.39,6.04,7.48,11.06,7.48s9.3-3.1,11.06-7.48c.1-.24.43-.24.52,0,1.73,4.32,5.91,7.38,10.82,7.48,6.68.13,12.15-5.46,12.15-12.14V4.2c0-2.32-1.88-4.2-4.2-4.2Z"/><path class="cls-1" d="M25.51,20.03c0,3.3-3.14,5.96-6.98,5.96h-1.84c-3.84,0-6.98-2.66-6.98-5.96v-.12l.03-.85h2.36l-.03.97c-.06,2.03,2.09,3.69,4.63,3.69h1.84c2.54,0,4.63-1.66,4.63-3.69s-2.09-3.72-4.63-3.72h-.85c-1.24-.06-2.9-.21-3.81-.76-2.39-1.39-3.54-3.08-3.54-5.23,0-3.27,3.14-5.96,6.98-5.96h.54c3.72,0,6.8,2.48,6.98,5.65l.06.91h-2.36l-.06-.82c-.15-1.96-2.18-3.48-4.63-3.48h-.54c-2.54,0-4.6,1.66-4.6,3.69s1.94,3.66,4.35,3.72h1.12v.03c1.03.03,1.54.06,1.57.09h.09c3.3.39,5.65,2.99,5.65,5.87Z"/><path class="cls-1" d="M59.39,20.03c0,3.3-3.14,5.96-6.98,5.96h-1.84c-3.84,0-6.98-2.66-6.98-5.96v-.12l.03-.85h2.36l-.03.97c-.06,2.03,2.09,3.69,4.63,3.69h1.84c2.54,0,4.63-1.66,4.63-3.69s-2.09-3.72-4.63-3.72h-.85c-1.24-.06-2.9-.21-3.81-.76-2.39-1.39-3.54-3.08-3.54-5.23,0-3.27,3.14-5.96,6.98-5.96h.54c3.72,0,6.8,2.48,6.98,5.65l.06.91h-2.36l-.06-.82c-.15-1.96-2.18-3.48-4.63-3.48h-.54c-2.54,0-4.6,1.66-4.6,3.69s1.94,3.66,4.35,3.72h1.12v.03c1.03.03,1.54.06,1.57.09h.09c3.3.39,5.65,2.99,5.65,5.87Z"/><polygon class="cls-1" points="39.56 8.59 34.58 15.42 29.58 8.59 26.7 8.59 33.41 17.75 33.41 26.14 35.73 26.14 35.73 17.78 42.44 8.59 39.56 8.59"/><path class="cls-2" d="M80.84,21.54c0,1.16.24,2.14.72,2.94.48.8,1.11,1.46,1.9,1.97.79.51,1.71.87,2.77,1.1,1.06.23,2.18.34,3.36.34.96,0,1.93-.09,2.92-.28.99-.18,1.88-.47,2.67-.87.79-.39,1.43-.92,1.93-1.59.49-.66.74-1.49.74-2.48,0-.9-.3-1.64-.89-2.2-.59-.56-1.36-1.02-2.31-1.38-.95-.35-2.03-.65-3.26-.89-1.23-.24-2.48-.49-3.77-.74-1.28-.25-2.54-.56-3.77-.93-1.23-.37-2.31-.87-3.26-1.5-.95-.63-1.71-1.43-2.31-2.39-.59-.96-.89-2.17-.89-3.64,0-1.55.34-2.89,1.02-4.02.68-1.13,1.58-2.06,2.71-2.79,1.13-.73,2.4-1.28,3.83-1.65,1.42-.37,2.88-.55,4.38-.55,1.78,0,3.41.2,4.91.61,1.49.41,2.79,1.03,3.87,1.86,1.09.83,1.94,1.88,2.56,3.15.62,1.27.96,2.75,1.02,4.44h-4.19c-.06-2.2-.83-3.86-2.33-4.99-1.5-1.13-3.44-1.69-5.84-1.69-.93,0-1.86.11-2.79.32-.93.21-1.76.54-2.5.97-.73.44-1.33.99-1.78,1.65-.45.66-.68,1.43-.68,2.31,0,1.07.3,1.93.89,2.58.59.65,1.38,1.18,2.35,1.61.97.42,2.08.77,3.32,1.04,1.24.27,2.52.54,3.83.8,1.31.27,2.59.57,3.83.91,1.24.34,2.35.79,3.32,1.35.97.56,1.76,1.29,2.35,2.18.59.89.89,2.01.89,3.36,0,1.69-.38,3.1-1.14,4.23-.76,1.13-1.76,2.03-2.98,2.71s-2.6,1.16-4.1,1.44c-1.51.28-3.03.42-4.55.42-1.78,0-3.45-.17-5.01-.51-1.57-.34-2.93-.89-4.1-1.67-1.17-.78-2.09-1.78-2.77-3.03-.68-1.24-1.03-2.75-1.06-4.53h4.19Z"/><polygon class="cls-2" points="103.7 6.21 103.39 6.21 103.39 6.52 103.36 9.75 103.35 10.06 103.66 10.06 111.69 10.06 111.69 30.6 111.69 30.91 111.99 30.91 115.57 30.91 115.88 30.91 115.88 30.6 115.88 10.06 124.14 10.06 124.45 10.06 124.45 9.75 124.45 6.52 124.45 6.21 124.14 6.21 103.7 6.21"/><polygon class="cls-2" points="199.69 6.21 177.81 6.21 177.5 6.21 177.5 6.52 177.5 30.6 177.5 30.91 177.81 30.91 199.69 30.91 200 30.91 200 30.6 200 27.92 200 27.62 199.69 27.62 181.7 27.62 181.7 20.24 199.69 20.24 200 20.24 200 19.94 200 17.25 200 16.95 199.69 16.95 181.7 16.95 181.7 9.51 199.69 9.51 200 9.51 200 9.2 200 6.52 200 6.21 199.69 6.21"/><path class="cls-2" d="M147.26,9.13c-1.23-1.13-2.69-2.03-4.35-2.66-1.66-.63-3.46-.95-5.37-.95-2.02,0-3.91.31-5.61.93-1.7.62-3.2,1.51-4.45,2.66-1.25,1.15-2.24,2.54-2.93,4.13-.69,1.59-1.04,3.39-1.04,5.35s.36,3.77,1.08,5.37c.71,1.6,1.7,2.99,2.95,4.13,1.24,1.13,2.73,2.03,4.44,2.66,1.7.63,3.58.95,5.58.95s3.71-.32,5.36-.95c1.65-.63,3.1-1.53,4.33-2.68,1.23-1.15,2.21-2.54,2.91-4.14.7-1.6,1.06-3.4,1.06-5.34s-.35-3.73-1.04-5.33c-.69-1.6-1.66-2.99-2.89-4.13ZM146.51,22.45c-.46,1.17-1.12,2.19-1.96,3.04-.84.85-1.86,1.52-3.04,1.99-1.18.48-2.52.72-3.96.72s-2.8-.24-4.02-.72c-1.22-.48-2.29-1.14-3.17-1.98-.88-.84-1.58-1.86-2.08-3.04-.5-1.18-.75-2.49-.75-3.88s.25-2.73.73-3.9c.49-1.17,1.17-2.19,2.05-3.04.87-.85,1.93-1.52,3.15-1.99,1.22-.48,2.59-.72,4.09-.72s2.81.24,4,.72c1.18.47,2.21,1.14,3.04,1.99.84.85,1.49,1.88,1.94,3.05.45,1.19.69,2.49.69,3.89s-.24,2.7-.7,3.87Z"/><path class="cls-2" d="M174.77,29.98c-.05-.21-.08-.44-.09-.7-.01-.26-.02-.53-.02-.81v-.79c.02-2.22-.3-3.98-.96-5.24-.58-1.09-1.52-1.93-2.81-2.49,1.09-.54,1.98-1.29,2.66-2.24.83-1.15,1.24-2.57,1.24-4.24,0-2.38-.8-4.21-2.39-5.44-1.56-1.21-3.87-1.82-6.86-1.82h-12.11v24.7h4.19v-9.74h4.82c1.63,0,2.99.08,4.05.24,1.02.15,1.83.46,2.4.92.56.45.97,1.11,1.2,1.96.24.89.37,2.1.37,3.6,0,.48,0,1,.02,1.54.01.65.18,1.12.5,1.41l.09.08h4.44l-.52-.52c-.1-.1-.17-.23-.21-.41ZM170.28,15.65c-.28.53-.69.96-1.23,1.27-.55.32-1.23.55-2.01.68-.81.13-1.74.2-2.77.2h-6.64v-8.23h6.58c.95,0,1.84.05,2.65.15.79.1,1.48.3,2.07.59.56.28,1.01.69,1.32,1.21.31.52.47,1.22.47,2.08s-.14,1.5-.43,2.04Z"/></g></svg>